<svg fill="#fff" height="200" width="200" xmlns="http://www.w3.org/2000/svg" viewBox="0 0 512 512" xml:space="preserve"><g stroke-width="0"/><g stroke-linecap="round" stroke-linejoin="round"/><path d="M135.749 96.44V68.583c5.907 1.936 9.62 5.833 9.62 9.447a8.017 8.017 0 0 0 16.034 0c0-12.784-10.768-23.198-25.654-25.983v-1.274a8.017 8.017 0 0 0-16.034 0v1.274c-14.885 2.786-25.654 13.2-25.654 25.983 0 17.862 14.266 25.369 25.654 29.69v27.858c-5.907-1.936-9.62-5.833-9.62-9.447a8.017 8.017 0 0 0-16.034 0c0 12.784 10.768 23.198 25.654 25.983v1.274a8.017 8.017 0 0 0 16.034 0v-1.274c14.885-2.786 25.654-13.2 25.654-25.983 0-17.863-14.266-25.37-25.654-29.691m-16.033-6.211c-7.992-3.917-9.62-7.338-9.62-12.199 0-3.614 3.713-7.511 9.62-9.447zm16.033 45.348v-21.646c7.992 3.917 9.62 7.338 9.62 12.199 0 3.614-3.713 7.511-9.62 9.447M256 59.858h-68.409a8.017 8.017 0 0 0 0 16.034H256a8.017 8.017 0 0 0 0-16.034m-59.858 68.41h-8.551a8.017 8.017 0 0 0 0 16.034h8.551a8.017 8.017 0 0 0 0-16.034m145.37 59.856H102.079a8.017 8.017 0 0 0 0 16.034h239.433a8.017 8.017 0 0 0 0-16.034m-162.473 51.307h-25.654a8.017 8.017 0 0 0 0 16.034h25.654a8.017 8.017 0 0 0 0-16.034m-59.858 0h-17.102a8.017 8.017 0 0 0 0 16.034h17.102a8.017 8.017 0 0 0 0-16.034m59.858 34.205h-25.654a8.017 8.017 0 0 0 0 16.034h25.654a8.017 8.017 0 0 0 0-16.034m-59.858 0h-17.102a8.017 8.017 0 0 0 0 16.034h17.102a8.017 8.017 0 0 0 0-16.034m59.858 34.205h-25.654a8.017 8.017 0 0 0 0 16.034h25.654a8.017 8.017 0 0 0 0-16.034m-59.858 0h-17.102a8.017 8.017 0 0 0 0 16.034h17.102a8.017 8.017 0 0 0 0-16.034m59.858 34.204h-25.654a8.017 8.017 0 0 0 0 16.034h25.654a8.017 8.017 0 0 0 0-16.034m-59.858 0h-17.102a8.017 8.017 0 0 0 0 16.034h17.102a8.017 8.017 0 0 0 0-16.034m59.858 34.205h-25.654a8.017 8.017 0 0 0 0 16.034h25.654a8.017 8.017 0 0 0 0-16.034m-59.858 0h-17.102a8.017 8.017 0 0 0 0 16.034h17.102a8.017 8.017 0 0 0 0-16.034m162.473-247.982h-8.551a8.017 8.017 0 0 0 0 16.034h8.551a8.017 8.017 0 0 0 0-16.034m42.755 0h-8.551a8.017 8.017 0 0 0 0 16.034h8.551a8.017 8.017 0 0 0 0-16.034m-85.511 0h-8.551a8.017 8.017 0 0 0 0 16.034h8.551a8.017 8.017 0 0 0 0-16.034m34.204-34.205H187.59a8.017 8.017 0 0 0 0 16.034h85.512a8.017 8.017 0 0 0 0-16.034"/><path d="M427.024 222.329h-34.739v-128.8a8 8 0 0 0-2.348-5.668L304.424 2.348A8 8 0 0 0 298.756 0H76.425C62.574 0 51.306 11.268 51.306 25.119v410.455c0 13.851 11.268 25.119 25.119 25.119h128.802v17.637c0 18.566 15.105 33.67 33.67 33.67h188.126c18.566 0 33.67-15.105 33.67-33.67V255.999c.001-18.566-15.104-33.67-33.669-33.67M306.773 27.37l58.142 58.142H324.41c-9.725 0-17.637-7.912-17.637-17.637zM205.227 255.999v188.66H76.425c-5.01 0-9.086-4.076-9.086-9.086V25.119c0-5.01 4.076-9.086 9.086-9.086h214.314v51.842c0 18.566 15.105 33.67 33.67 33.67h51.842v120.783H238.898c-18.566.001-33.671 15.105-33.671 33.671M444.661 478.33c0 9.725-7.912 17.637-17.637 17.637H238.898c-9.725 0-17.637-7.912-17.637-17.637V255.999c0-9.725 7.912-17.637 17.637-17.637h188.126c9.725 0 17.637 7.912 17.637 17.637z"/><path d="M409.921 256.533H256c-9.136 0-16.568 7.432-16.568 16.568v34.205c0 9.136 7.432 16.568 16.568 16.568h153.921c9.136 0 16.568-7.432 16.568-16.568v-34.205c0-9.136-7.432-16.568-16.568-16.568m.535 50.773a.534.534 0 0 1-.534.534H256a.534.534 0 0 1-.534-.534v-34.205c0-.295.239-.534.534-.534h153.921c.295 0 .534.239.534.534v34.205zm-137.354 43.29H256c-9.136 0-16.568 7.432-16.568 16.568v17.102c0 9.136 7.432 16.568 16.568 16.568h17.102c9.136 0 16.568-7.432 16.568-16.568v-17.102c0-9.136-7.432-16.568-16.568-16.568m.535 33.671a.534.534 0 0 1-.534.534H256a.534.534 0 0 1-.534-.534v-17.102c0-.295.239-.534.534-.534h17.102c.295 0 .534.239.534.534v17.102zm136.284-33.671h-17.102c-9.136 0-16.568 7.432-16.568 16.568v17.102c0 9.136 7.432 16.568 16.568 16.568h17.102c9.136 0 16.568-7.432 16.568-16.568v-17.102c0-9.136-7.432-16.568-16.568-16.568m.535 33.671a.534.534 0 0 1-.534.534H392.82a.534.534 0 0 1-.534-.534v-17.102c0-.295.239-.534.534-.534h17.102c.295 0 .534.239.534.534zm-68.944-33.671H324.41c-9.136 0-16.568 7.432-16.568 16.568v17.102c0 9.136 7.432 16.568 16.568 16.568h17.102c9.136 0 16.568-7.432 16.568-16.568v-17.102c0-9.136-7.432-16.568-16.568-16.568m.534 33.671a.534.534 0 0 1-.534.534H324.41a.534.534 0 0 1-.534-.534v-17.102c0-.295.239-.534.534-.534h17.102c.295 0 .534.239.534.534zm-68.944 34.739H256c-9.136 0-16.568 7.432-16.568 16.568v17.102c0 9.136 7.432 16.568 16.568 16.568h17.102c9.136 0 16.568-7.432 16.568-16.568v-17.102c0-9.136-7.432-16.568-16.568-16.568m.535 33.67a.534.534 0 0 1-.534.534H256a.534.534 0 0 1-.534-.534v-17.102c0-.295.239-.534.534-.534h17.102c.295 0 .534.239.534.534v17.102zm136.284-33.67h-17.102c-9.136 0-16.568 7.432-16.568 16.568v17.102c0 9.136 7.432 16.568 16.568 16.568h17.102c9.136 0 16.568-7.432 16.568-16.568v-17.102c0-9.136-7.432-16.568-16.568-16.568m.535 33.67a.534.534 0 0 1-.534.534H392.82a.534.534 0 0 1-.534-.534v-17.102c0-.295.239-.534.534-.534h17.102c.295 0 .534.239.534.534zm-68.944-33.67H324.41c-9.136 0-16.568 7.432-16.568 16.568v17.102c0 9.136 7.432 16.568 16.568 16.568h17.102c9.136 0 16.568-7.432 16.568-16.568v-17.102c0-9.136-7.432-16.568-16.568-16.568m.534 33.67a.534.534 0 0 1-.534.534H324.41a.534.534 0 0 1-.534-.534v-17.102c0-.295.239-.534.534-.534h17.102c.295 0 .534.239.534.534z"/></svg>