<svg xmlns="http://www.w3.org/2000/svg" width="512" height="512"><path fill="#fff" d="M258 26c3.706 3.285 6.451 6.752 9 11v2l3.808-.08c4.657-.09 9.314-.147 13.972-.195q3.024-.038 6.05-.102c2.896-.06 5.792-.09 8.69-.111l2.737-.078c2.347-.002 4.452.06 6.743.566 2.925 2.926 2.985 4.686 3.188 8.813L312 51l1.963-.02a4070 4070 0 0 1 20.394-.145q3.795-.022 7.591-.061a1672 1672 0 0 1 10.97-.067l3.376-.047c15.766-.003 28.9 4.019 40.386 14.965 9.219 9.436 14.155 18.956 14.757 32.313.263 3.783.263 3.783 1.563 7.062 3.198 2.265 6.43 3.43 10.117 4.617 6.416 2.085 11.561 6.357 16.883 10.383l1.98 1.418c14.874 11.482 23.654 30.355 27.602 48.215 3.274 26.379-2.37 49.64-18.582 70.804-9.975 11.79-23.335 20.675-38 25.563q-.247 27.837-.363 55.676c-.036 8.617-.085 17.234-.165 25.85q-.106 11.266-.13 22.532c-.01 3.977-.031 7.953-.082 11.93a724 724 0 0 0-.052 11.231 344 344 0 0 1-.079 6.084c-.183 6.217-.183 6.217 2.422 11.575 2.084 1.559 2.084 1.559 5.449 3.122 1.742 2.098 1.742 2.098 2.875 4.063l1.18 1.972c3.293 6.844 2.891 15.168.445 22.215-2.834 6.378-7.831 9.97-13.5 13.75-.99 2.536-.99 2.536-1.75 5.5-3.871 12.29-12.392 21.823-23.504 28.148-11.075 5.452-21.811 6.504-33.947 6.486l-3.358.007q-5.556.007-11.112.004l-7.98.01q-9.704.012-19.408.012-7.894 0-15.787.006-22.409.013-44.816.012h-4.879q-19.57.002-39.14.023-20.123.023-40.244.02-11.286-.001-22.572.014-9.61.014-19.222.005-4.896-.006-9.793.005c-3.55.008-7.101.003-10.652-.005l-3.076.016C83.266 496.184 69.636 492.972 57 482c-12.186-12.684-15.308-25.52-15.267-42.624l-.014-4.475c-.012-4.086-.012-8.172-.01-12.258 0-4.412-.01-8.824-.02-13.236q-.023-12.959-.023-25.917-.002-10.536-.012-21.072-.026-29.886-.025-59.772v-6.511c.001-17.418-.018-34.837-.046-52.256q-.043-26.842-.04-53.685c0-10.043-.006-20.086-.027-30.129q-.029-12.826-.009-25.653c.006-4.36.007-8.72-.01-13.08q-.024-5.996.004-11.991.005-2.16-.012-4.32c-.112-15.494 4.147-28.216 14.699-39.771A53.33 53.33 0 0 1 92.73 50.886h3.335l3.552.016 3.674.005c3.861.005 7.723.018 11.584.03q3.933.008 7.867.014 9.63.017 19.258.049l-.07-1.863-.055-2.45-.07-2.425C142 42 142 42 144 39c1.801-.345 1.801-.345 4.003-.305l2.499.018 2.705.057q2.828.003 5.654.001c2.977.015 5.951.041 8.927.095 2.87.045 5.736.04 8.607.029l2.686.087c2.544-.03 4.517-.135 6.919-.982 2.253-2.422 3.568-5.044 5-8 7.475-8.794 18.488-12.395 29.645-13.781C234.029 15.346 247.167 17.717 258 26m-58.312 12.313C197.542 41.73 195.805 45.39 194 49l-40 1v42h146V50l-41-1-5-10c-7.627-8.075-16.53-10.61-27.473-11.098-9.827.272-19.777 3.348-26.84 10.41M62.125 77.167c-8.787 12.41-9.276 25.052-9.259 39.78l-.007 4.217a6096 6096 0 0 0-.004 11.533q-.002 6.23-.01 12.46-.012 12.195-.012 24.391 0 9.915-.006 19.832-.013 28.134-.012 56.268v6.127q-.002 24.59-.023 49.181-.023 25.27-.02 50.54.001 14.178-.014 28.358-.015 12.07-.005 24.143.007 6.153-.005 12.308-.011 5.643.002 11.286c.003 1.992-.005 3.984-.013 5.976.057 14.916 1.967 28.095 12.513 39.37 10.486 9.695 22.47 11.373 36.274 11.323l3.39.011c3.728.01 7.456.007 11.183.003l8.045.015q9.771.018 19.543.012 7.947-.002 15.894.005l2.29.001 4.606.004q21.57.014 43.142.003c13.138-.006 26.275.006 39.413.025q20.267.03 40.533.024c7.577-.002 15.153 0 22.73.014q9.675.019 19.35.002 4.93-.01 9.86.005c3.573.01 7.146.002 10.72-.01l3.103.022c12.37-.092 23.665-2.958 32.932-11.471 4.625-4.89 7.352-9.653 9.742-15.926l-15-6-2.562 4.188C376.906 460.5 373.17 463.943 367 466c-3.054.127-6.088.196-9.143.221l-2.872.035c-3.19.037-6.379.066-9.568.096l-6.844.073c-20.857.217-41.714.338-62.572.434l-8.379.04-2.103.01c-11.223.057-22.445.169-33.667.302a3630 3630 0 0 1-34.609.241c-6.472.017-12.942.059-19.413.165-6.098.098-12.192.125-18.29.098q-3.344.002-6.686.087c-10.445.25-18.652.335-26.607-7.09-2.95-3.093-5.632-6.334-8.247-9.712a410 410 0 0 0-3.562-4.062l-1.504-1.786c-3.442-3.83-7.16-7.396-10.819-11.017-3.57-3.548-6.96-7.164-10.209-11.01-3.214-3.584-6.671-6.93-10.113-10.295a198 198 0 0 1-3.105-3.123 69 69 0 0 0-3.285-3.122c-4.55-4.442-5.113-8.165-5.2-14.399l.042-3.502-.026-3.758c-.018-3.432-.01-6.861.011-10.293.016-3.705-.003-7.41-.017-11.115-.023-7.254-.014-14.508.007-21.762q.023-8.847.016-17.694l-.002-2.545-.004-5.12c-.012-15.997.012-31.995.049-47.994q.044-20.575.014-41.15a17848 17848 0 0 1-.001-52.913l.003-2.536c.007-5.887.002-11.774-.007-17.661q-.017-10.77.027-21.54c.016-3.661.023-7.322.008-10.983-.015-3.975.008-7.949.035-11.924l-.031-3.481C70.42 98.855 71.734 93.107 76 87c4.67-4.447 9.12-6.105 15.481-6.205l3.397-.06 3.665-.051 3.754-.063q4.935-.082 9.868-.153 5.038-.077 10.075-.161 9.88-.161 19.76-.307V63q-11.178-.149-22.357-.22-3.795-.03-7.591-.082a1274 1274 0 0 0-10.97-.089l-3.376-.062c-13.697-.004-26.42 4.028-35.581 14.621M312 63v17l4.922.028c6.046.04 12.091.106 18.137.18q3.92.042 7.839.063c3.764.021 7.526.068 11.29.12l3.52.003c7.273.13 13.368.86 18.808 6.053 4.269 4.878 5.414 8.136 6.484 14.553l17 1c-.157-10.361-4.184-20.303-11.25-28-10.772-9.54-22.356-11.324-36.223-11.195l-3.526.008c-3.688.011-7.376.036-11.063.062q-3.769.016-7.538.027-9.2.035-18.4.098M83 97c-1.232 2.464-1.124 4.066-1.123 6.822l-.006 3.105.009 3.437-.003 3.63q-.001 5.005.007 10.01.005 5.39.002 10.78 0 9.345.008 18.69.011 13.511.012 27.022.004 21.919.019 43.838.014 21.296.02 42.593v2.65l.005 13.164Q81.966 337.37 82 392l3.729.044c4.592.058 9.184.136 13.776.218q2.974.051 5.947.084c2.86.034 5.72.087 8.58.142l2.658.02c6.51.153 12.382 1.054 17.552 5.36l1.633 2.007 1.68 1.992c3.854 5.688 3.78 11.015 3.86 17.684.018 1.014.038 2.028.058 3.072.06 3.23.106 6.46.152 9.69l.117 6.58q.143 8.053.258 16.107a49803 49803 0 0 0 94.519.22l2.007.003q15.087.025 30.173.079 17.505.06 35.011.074c6.18.006 12.361.018 18.542.047q8.724.039 17.448.03 3.204 0 6.407.024c2.915.02 5.829.015 8.743.004l2.565.035c5.291-.053 8.45-.897 12.585-4.516.969-3.133.969-3.133 1-6l-8.062-4.25-2.573-1.356a2627 2627 0 0 0-13.974-7.308c-9.64-5.002-19.239-10.061-28.766-15.274l-2.75-1.49c-4.275-2.32-8.507-4.681-12.68-7.181-7.11-4.55-7.11-4.55-15.148-5.954-2.54.822-2.54.822-4.84 1.954-5.332 2.076-11.247-1.157-16.207-3.141l-6 12 3 2.813c3.252 3.905 4.005 6.893 3.71 11.937-.912 4.174-2.39 7.832-4.21 11.688l-.95 2.08c-2.25 4.368-4.665 6.953-9.265 8.833-6.65 1.889-13.132-.762-19.012-3.78l-2.129-1.05a848 848 0 0 1-6.769-3.396q-3.519-1.754-7.041-3.502-2.34-1.163-4.68-2.333a450 450 0 0 0-13.924-6.653l-3.202-1.471q-2.88-1.314-5.775-2.59c-5.132-2.368-8.2-4.276-10.753-9.576-1.899-6.965.43-12.817 3.625-18.937l1.001-1.936c2.417-4.29 4.884-6.84 9.374-9.127 2.816-.258 2.816-.258 5.563-.125 2.848-.042 2.848-.042 5.437-.875 2.647-2.998 4.103-6.113 5-10-.314-2.742-.314-2.742-1-5l-2.957-.113-3.856-.2-3.832-.175C194 369 194 369 192.035 367.652 191 366 191 366 191.25 362.875 192 360 192 360 193 359c1.34-.156 2.688-.25 4.035-.316l2.451-.127 2.577-.12 2.587-.13q3.175-.159 6.35-.307 3.007-6.184 6-12.375l1.734-3.562 1.641-3.399 1.523-3.142c1.235-2.369 1.235-2.369 1.102-4.522l-2.615-.044q-4.805-.092-9.61-.218a548 548 0 0 0-4.159-.084 572 572 0 0 1-5.98-.142l-3.633-.08C194 330 194 330 192.105 328.628c-1.566-2.307-1.454-3.905-1.105-6.628 2.987-2.987 6.293-2.298 10.297-2.309l5.094-.076q4.016-.042 8.03-.071c2.585-.022 5.167-.061 7.75-.103h2.407c4.844-.086 8.245-.726 12.422-3.441 1.996-3.12 1.996-3.12 3.375-6.687l1.523-3.575L243 303l-2.375-2.187c-3.24-3.472-4.64-5.912-4.602-10.708l.352-2.918.336-2.957L237 282l-1.657-.025q-8.517-.13-17.032-.292-3.18-.058-6.361-.105c-3.044-.045-6.087-.103-9.13-.164l-2.885-.035-2.669-.06-2.355-.04C193 281 193 281 191 279c.25-3.562.25-3.562 1-7 2.432-1.216 4.003-1.13 6.722-1.142l2.974-.021 3.226-.013q3.368-.035 6.734-.072c3.547-.035 7.092-.064 10.639-.078 3.418-.015 6.834-.056 10.252-.1l3.201.006c6.143-.102 9.474-.687 14.252-4.58 2.676-.531 2.676-.531 5.313-.5l2.613-.031c2.923.505 4.15 1.121 6.651 2.533 6.608 2.976 13.627 2.55 20.728 2.514 2.573-.012 5.144 0 7.717.016 4.526.027 9.053.033 13.579.031 7.265-.002 14.53.012 21.795.056 2.534.01 5.068.001 7.603-.009l4.643.021 2.135-.023c2.711.028 4.787.15 7.183 1.478C351 274 351 274 351 281l-54 1c2.898 2.173 4.762 3.48 7.934 4.832l2.216.982q2.276.994 4.563 1.961c5.755 2.577 9.396 5.443 12.287 11.225.203 1.848.203 1.848.25 4.063l.078 2.16c-.487 4.123-1.924 7.884-3.328 11.777l2.539.06q4.658.118 9.314.257c2.006.058 4.012.105 6.018.152l3.809.117 3.523.095C349 320 349 320 351 322c.313 3 .313 3 0 6-3.214 2.142-4.13 2.262-7.839 2.319l-2.972.06-3.2.035-3.284.059c-3.464.06-6.928.106-10.392.152q-3.522.057-7.042.117-8.636.143-17.271.258a377 377 0 0 0-2.5 4.688l-1.406 2.636c-1.156 2.827-1.454 4.656-1.094 7.676 1.824 1.697 1.824 1.697 4.25 2.938 3.274 1.834 4.57 2.707 6.303 6.124 2.051 3.026 2.051 3.026 4.412 3.493 2.53.204 5.004.223 7.543.18l2.793.027c2.942.024 5.882.008 8.824-.012q4.423.001 8.845.031 2.751.016 5.502-.006l2.509.001 2.21-.014C349 359 349 359 351 361c.25 3 .25 3 0 6-2.64 2.64-3.98 2.302-7.664 2.414l-3.399.117-3.562.094-3.586.117q-4.394.142-8.789.258c3.521 2.348 7.233 3.926 11.105 5.59l2.419 1.046q2.535 1.095 5.071 2.186 3.85 1.658 7.696 3.324l4.94 2.131 2.298.995 2.214.95 1.91.823c3.42 1.392 6.89 2.659 10.347 3.955V268l-15-4c-2.907-1.18-5.518-2.293-8.25-3.75l-1.997-1.032c-6.695-3.555-14.131-7.567-18.608-13.801-4.916-3.778-9.762-3.103-15.798-3.045l-3.894-.022a835 835 0 0 0-8.366-.003c-4.408.02-8.815.005-13.223-.015-6.967-.027-13.934-.03-20.902-.024a9156 9156 0 0 1-37.465-.054q-6.576-.019-13.152-.006-3.101.003-6.202-.002-3.786-.006-7.573.01l-3.352-.011-2.924.003C193 242 193 242 191 240c.25-3.562.25-3.562 1-7 2.458-1.23 4.084-1.138 6.834-1.158l3.094-.03 3.406-.017 3.578-.03q4.862-.04 9.724-.068c3.386-.022 6.772-.05 10.158-.076q9.621-.074 19.241-.138 10.952-.076 21.903-.16 22.53-.17 45.062-.323l-1.61-3.305C308.317 216.97 305.098 206.67 303 195l-1.678-.013q-20.205-.155-40.41-.326-9.772-.084-19.543-.158-9.424-.072-18.849-.156-3.6-.031-7.202-.056-5.032-.037-10.063-.086l-3.028-.017-2.766-.03-2.405-.02C195 194 195 194 192 193c-1-6.75-1-6.75-1-9l111-1 4-22 1-5c-26.64-.858-53.286-1.23-79.937-1.562l-2.69-.034Q207.688 154.196 191 154v-9l1.877.023q22.663.279 45.325.311c7.308.012 14.613.05 21.92.15 6.372.086 12.742.124 19.115.102 3.372-.01 6.74.005 10.112.08 13.37.877 13.37.877 25.725-3.039 3.74-3.683 5.722-7.925 7.926-12.627 12.279-15.156 30.577-22.55 49-27-.765-3.618-1.448-6.333-3.827-9.21-4.933-2.783-9.69-2.282-15.255-2.18-1.17.005-2.339.01-3.543.017-3.73.022-7.458.072-11.187.123q-3.797.03-7.592.055-9.3.067-18.596.195l-.367 2.152-.508 2.785-.492 2.778L310 102c-2.842 1.421-5.236 1.13-8.415 1.134l-2.018.007q-3.363.007-6.725.004l-4.809.01q-6.542.014-13.084.012l-10.908.008q-12.862.012-25.723.01-13.287.001-26.574.026-11.392.019-22.785.018-6.81-.002-13.622.013-6.402.014-12.804.003-2.355-.003-4.71.007a889 889 0 0 1-6.408-.005l-3.629.002C145 103 145 103 143 101c-.414-2.164-.414-2.164-.625-4.625l-.227-2.477L142 92c-7.438-.127-14.876-.214-22.314-.275q-3.795-.037-7.59-.102c-3.638-.06-7.277-.09-10.916-.111l-3.42-.078C91.03 91.43 87.548 91.873 83 97m249 40c-13.1 16.465-20.202 35.88-18 57 2.718 19.786 13.137 37.59 28.848 49.863C354.26 251.6 367.126 257.135 381 258l2.41.16c18.636.631 36.84-6.3 50.777-18.535A329 329 0 0 0 439 235l1.902-1.828c13.216-13.785 17.76-32.123 17.567-50.684-.642-20.24-8.985-36.695-23.469-50.488-14.155-13.05-32.432-19.43-51.625-19.215-19.748 1.257-37.837 9.78-51.375 24.215m52 133v126c7.693 4.802 7.693 4.802 16 7V269c-8.02-.165-8.02-.165-16 1m-129 6c-2.558 2.454-4.13 4.767-5.75 7.938l-1.36 2.59c-1.012 2.811-.959 3.735.11 6.472 1.501 1.24 1.501 1.24 3.456 2.087l2.219 1.083 2.427 1.13 2.51 1.211a1196 1196 0 0 0 8.013 3.801q2.622 1.255 5.242 2.514c4.24 2.033 8.49 4.04 12.745 6.042a635 635 0 0 1 6.832 3.298l2.069.998q2.72 1.317 5.434 2.645c2.97 1.159 4.908 1.463 8.053 1.191a335 335 0 0 0 3.063-5.187l1.722-2.918c1.402-3.34 1.348-4.513.215-7.895-1.743-1.508-1.743-1.508-4.054-2.508l-2.612-1.284-2.854-1.333c-.968-.47-1.937-.939-2.936-1.422-3.11-1.502-6.233-2.977-9.356-4.453q-3.095-1.49-6.186-2.984c-9.558-4.601-19.117-9.154-29.002-13.016m-2 33c-1.625 2.833-1.625 2.833-3 6 .734 3.31.734 3.31 4.143 4.81q2.08 1.007 4.173 1.983l2.216 1.063c2.339 1.12 4.684 2.226 7.03 3.332q2.38 1.134 4.756 2.271Q278.153 331.245 284 334c2.325-2.853 3.75-5.54 5-9q-5.405-2.596-10.812-5.187l-3.045-1.463a1271 1271 0 0 0-15.28-7.213l-2.69-1.248c-2.09-1.015-2.09-1.015-4.173-.889m-14 18q-3.373 6.667-6.69 13.362-1.385 2.79-2.785 5.573a1431 1431 0 0 0-4.588 9.252l-1.518 3.005-1.392 2.851-1.258 2.532c-.927 2.922-.752 4.54.231 7.425 2.484 1.727 2.484 1.727 5.5 3 5.263 2.387 5.263 2.387 6.469 5.5C233 382 233 382 231 385c-4.812.463-8.52-.252-13-2l-4 8a4858 4858 0 0 0 13.934 6.836q2.372 1.161 4.74 2.328 3.405 1.675 6.814 3.336l2.14 1.06c3.999 1.941 3.999 1.941 8.372 2.44 2.201-3.804 2.201-3.804 3-8l-2.809-1.496-3.629-1.942-1.853-.986c-4.596-2.463-4.596-2.463-5.709-3.576-.25-2.937-.25-2.937 0-6 3-2 3-2 5.5-1.937 4.226 1.131 7.912 2.924 11.816 4.878 2.787 1.1 4.72 1.268 7.684 1.059a1692 1692 0 0 0 6.69-13.358q1.388-2.799 2.785-5.593c1.541-3.093 3.066-6.195 4.587-9.299l1.52-3.03 1.39-2.86 1.259-2.548c.876-2.633.871-3.784-.231-6.312-2.657-1.893-2.657-1.893-6.125-3.562l-1.953-.999A675 675 0 0 0 267 338l-2.883-1.44a1332 1332 0 0 0-9.242-4.56l-3.016-1.494-2.867-1.381-2.551-1.242c-2.64-.955-4.656-1.052-7.441-.883m53 32c-10.434 16.333-10.434 16.333-16 34l4 1c3.925-6.033 7.215-12.194 10.313-18.687l1.376-2.8 1.3-2.712 1.172-2.433c.92-2.6.995-4.63.839-7.368zm11 16-8 16c2.956 2.217 5.42 3.844 8.648 5.496l2.758 1.422 2.969 1.52c7.6 3.922 15.143 7.92 22.625 12.062 10.541 5.807 21.233 11.315 31.938 16.813l2.52 1.297c8.26 4.25 16.538 8.463 24.913 12.48l3.517 1.695c4.3 1.68 7.838 2.088 12.112.215 3.048-2.465 4.833-4.75 7-8 .451-4.586.466-7.01-1.5-11.187-6.149-6.918-15.266-10.179-23.562-13.875l-1.954-.878c-19.042-8.547-38.287-16.639-57.517-24.75a2658 2658 0 0 1-11.043-4.69l-2.668-1.135q-2.493-1.062-4.983-2.13c-3.753-1.733-3.753-1.733-7.773-2.355m-107 22a451 451 0 0 0-3 5.188l-1.687 2.917c-1.358 2.995-1.427 4.676-1.313 7.895q7.863 3.841 15.729 7.678l5.326 2.6q7.71 3.768 15.436 7.502c2.489 1.21 4.968 2.437 7.447 3.665l4.597 2.243 2.115 1.064c3.696 1.79 3.696 1.79 7.724 2.087 2.504-1.292 3.176-3.086 4.376-5.589l1.297-2.61c.99-2.74 1.14-4.752.953-7.64-11.317-6.21-22.849-11.942-34.511-17.47q-2.295-1.09-4.586-2.186c-2.179-1.04-4.362-2.07-6.548-3.098l-1.977-.949c-3.785-1.761-7.231-2.812-11.378-3.297m-105 7c1.42 3.246 3.138 5.363 5.668 7.828l2.209 2.176 2.31 2.246c4.922 4.806 9.679 9.647 14.163 14.866 2.555 2.917 5.274 5.654 8.025 8.384l1.613 1.625c2.146 2.665 2.146 2.665 5.012 3.875q.185-7.097.275-14.197.037-2.412.102-4.824c.061-2.319.09-4.636.111-6.956l.078-2.16c.003-3.857-.546-6.322-2.909-9.302-4.112-3.963-7.218-3.681-12.731-3.659l-2.072.005c-2.18.005-4.361.018-6.541.03q-2.22.009-4.44.014-5.437.017-10.873.049"/><path fill="#fff" d="m113.098 309.498 3.731-.028q2.01.016 4.019.034 2.065 0 4.131-.005 4.324 0 8.647.034c3.695.029 7.389.026 11.083.013 2.843-.007 5.685.001 8.527.014q2.043.006 4.087 0a482 482 0 0 1 5.708.036l3.281.016c2.688.388 2.688.388 4.55 1.745 1.564 2.258 1.355 3.962 1.138 6.643l3.313-.688c3.687-.312 3.687-.312 5.625.75 1.537 2.804 1.415 4.787 1.062 7.938-1.94 1.606-1.94 1.606-4.45 3.078-3.471 2.858-4.82 4.95-5.322 9.338-.304 5.445-.182 10.885-.04 16.334.046 2.83.08 5.659.09 8.489q.014 2.631.097 5.262l.028 2.408.055 2.107c-.692 2.998-2.03 4.147-4.458 5.984-2.77.508-2.77.508-5.99.518l-3.661.038-3.943-.025-4.057.012a978 978 0 0 1-8.493-.022c-3.625-.022-7.25-.01-10.874.015-2.792.014-5.583.01-8.375 0-1.985-.005-3.97.007-5.956.02-1.812-.02-1.812-.02-3.66-.038l-3.221-.01c-3.539-.649-4.7-1.584-6.77-4.508-.508-2.77-.508-2.77-.518-5.99l-.038-3.661.025-3.943-.012-4.057a978 978 0 0 1 .022-8.493c.022-3.625.01-7.25-.015-10.874a974 974 0 0 1 0-8.375c.005-1.985-.007-3.97-.02-5.956l.038-3.66.01-3.221c1.13-6.167 4.84-7.27 10.606-7.272M115 322v45h45v-22c-4.849 3.232-8.555 6.288-12.656 10.293-2.966 2.16-4.664 2.74-8.344 2.707-2.455-1.46-4.36-2.8-6.5-4.625-.543-.44-1.085-.88-1.645-1.332a209 209 0 0 1-3.24-2.691 98 98 0 0 0-3.342-2.672c-1.485-1.152-2.886-2.411-4.273-3.68-.437-3.75-.437-3.75 0-7 1-1 1-1 4.16-1.375 4.683.457 6.959 2.293 10.278 5.375l1.638 1.445c1.322 1.17 2.625 2.36 3.924 3.555 2.702-1.955 5.351-3.973 8-6l3.203-2.379q1.65-1.276 3.297-2.559l3.156-2.402c3.115-2.944 3.115-2.944 2.344-9.66zm6.254-100.559 3.918.007q4.097.011 8.193.065c3.496.045 6.991.06 10.488.064 3.342.005 6.684.029 10.026.052l3.8.016 3.53.049c1.024.01 2.049.02 3.104.032 2.758.281 4.418.69 6.687 2.274.75 3.125.75 3.125 1 6l2.25-.625c2.75-.375 2.75-.375 5 .125 1.75 1.5 1.75 1.5 2.813 4.813C182 238 182 238 179.75 240.75L177 243l-1.687 1.813C174 246 174 246 172 246l.048 3.808c.054 4.657.088 9.314.117 13.972q.022 3.024.061 6.05c.037 2.896.054 5.793.067 8.69.015.903.03 1.806.047 2.737v2.547l.02 2.24C172 288 172 288 170.859 289.738c-2.674 1.817-4.716 1.651-7.934 1.667l-3.792.038-4.1-.008-4.204.015q-4.402.013-8.806-.003c-3.763-.011-7.525.009-11.289.038-2.892.018-5.785.018-8.678.012q-2.081 0-4.162.019c-1.939.014-3.878.001-5.817-.013h-3.344C106 291 106 291 104.146 289.335c-1.425-2.904-1.54-4.984-1.566-8.219l-.048-3.59v-3.867l-.024-3.982q-.019-4.17-.009-8.34c.006-3.556-.025-7.11-.065-10.666-.032-3.4-.028-6.8-.028-10.2l-.05-3.86c.039-4.9.085-8.53 2.353-12.92 5.349-2.75 10.622-2.343 16.545-2.25M115 234v45h45v-22c-5.082 3.812-9.989 7.596-14.824 11.68-2.69 1.632-4.066 1.63-7.176 1.32-2.005-1.193-2.005-1.193-3.918-2.844l-2.111-1.777-2.159-1.879a961 961 0 0 0-4.292-3.656l-1.904-1.65c-1.55-1.392-1.55-1.392-3.616-1.194v-9c5.856-1.544 5.856-1.544 8.796-.145 1.798 1.282 3.471 2.639 5.142 4.083l1.783 1.458A276 276 0 0 1 140 257c4.59-2.505 8.334-5.705 12.25-9.125l1.93-1.668c2.973-2.535 2.973-2.535 5.82-5.207v-7zm-2.924-99.502 3.792-.028q2.05.015 4.1.034 2.103 0 4.204-.005 4.402 0 8.806.034c3.763.029 7.525.026 11.289.013 2.892-.007 5.785.001 8.678.014q2.081.006 4.162 0c1.94-.002 3.878.016 5.817.036l3.344.016C169 135 169 135 170.837 136.39c1.332 1.845 1.779 3.381 2.163 5.611l2.812-.188c3.188.188 3.188.188 5.125 1.25C182 145 182 145 182.187 148.25c-1.359 4.292-1.632 4.11-5.21 6.187-3.23 2.716-4.239 4.832-4.678 8.921-.302 5.464-.213 10.924-.112 16.392q.042 4.27.04 8.54.003 2.65.06 5.299c.01 1.197.01 1.197.018 2.418l.04 2.123C172 200 172 200 170.86 201.724c-2.675 1.834-4.71 1.664-7.937 1.68l-3.792.038-4.1-.008-4.204.015q-4.402.014-8.806-.003c-3.763-.011-7.525.009-11.289.038-2.892.018-5.785.018-8.678.012q-2.081 0-4.162.019c-1.939.014-3.878.001-5.817-.013h-3.344C106 203 106 203 104.145 201.336c-1.428-2.915-1.526-4.99-1.533-8.235l-.029-3.6.019-3.877-.01-3.99q-.005-4.176.017-8.352c.017-3.564.007-7.128-.01-10.693-.014-3.405-.005-6.81.003-10.215l-.019-3.876.029-3.6.007-3.167c.861-6.176 3.554-7.233 9.457-7.234M115 147v44h45v-21c-4.475 2.238-7.776 5.176-11.402 8.543-2.482 2.177-4.315 3.4-7.57 4.059-4-.795-6.541-2.795-9.59-5.352l-1.67-1.344a298 298 0 0 1-3.237-2.648c-1.43-1.175-2.898-2.305-4.367-3.43C120 168 120 168 118.937 165.5c.063-2.5.063-2.5 1.688-4.875C123 159 123 159 125.301 159.109c4.547 1.5 7.571 4.894 11.078 8.055 2.36 2.084 2.36 2.084 4.576 1.617 2.246-.858 3.599-1.842 5.393-3.433l1.834-1.604 1.88-1.682q1.86-1.64 3.723-3.277c.546-.486 1.09-.972 1.653-1.472C157 156 157 156 160 154v-7zm303.247 11.604c2.753.396 2.753.396 4.69 1.458 1.726 3.147.843 5.526.063 8.938-1.93 2.595-1.93 2.595-4.445 4.996l-2.766 2.693q-1.455 1.375-2.914 2.748-2.82 2.714-5.633 5.434l-2.74 2.642c-2.775 2.758-5.349 5.63-7.888 8.604-2.768 3.229-5.668 6.318-8.614 9.383l-1.75 1.914c-3.018 3.113-4.538 4.458-8.91 5.246-3.933-.777-5.151-1.749-7.777-4.723-2.774-3.008-5.503-5.854-8.625-8.5-2.848-2.464-5.647-4.965-8.375-7.562l-1.997-1.883c-1.857-2.363-2.3-4.017-2.566-6.992 1-2.313 1-2.313 3-4 3.125-.813 3.125-.813 7 0 2.467 2.01 4.565 4.2 6.723 6.54 2.118 2.288 4.3 4.352 6.652 6.397l1.898 1.653c1.883 1.584 1.883 1.584 4.727 3.41.64-.707 1.28-1.413 1.938-2.142a739 739 0 0 1 20.67-21.872 474 474 0 0 0 3.435-3.537 522 522 0 0 1 5.07-5.183l1.525-1.61c2.553-2.538 3.988-3.61 7.609-4.052"/></svg>