<svg xmlns="http://www.w3.org/2000/svg" width="512" height="512"><path d="m244.965 120.566 2.637-.015q2.757-.01 5.515.003c2.807.008 5.613-.02 8.42-.052q2.683-.003 5.365.002l2.535-.034c3.954.047 6.07.231 9.52 2.322 1.9 2.053 2.923 3.425 3.844 6.028l.771 2.121.74 2.184.8 2.207C287 140.64 287 140.64 287 143l1.95.445c6.832 1.696 12.766 4.19 19.007 7.446 4.519 1.647 7.44.814 11.754-1.082l2.664-1.371c5.053-2.332 8.106-3.524 13.625-2.438 1.755 1.253 1.755 1.253 3.586 2.922l2.111 1.92L344 153l2.504 2.337a647 647 0 0 1 7.933 7.663l2.756 2.617c6.414 6.304 6.414 6.304 8.123 11-.41 4.38-1.839 7.62-3.816 11.508-2.637 4.95-2.637 4.95-3.437 10.371 1.6 4.274 3.486 8.397 5.41 12.533 1.812 4 3.03 7.555 3.527 11.971l1.836.48c16.149 4.497 16.149 4.497 20.164 10.52.267 1.89.267 1.89.29 4.04l.04 2.448.006 2.633.02 2.716q.015 2.843.015 5.687c.004 2.9.04 5.797.078 8.697q.009 2.762.012 5.525l.043 2.627c-.045 5.985-.045 5.985-2.294 9.13-2.105 1.426-3.58 2.16-6.038 2.716-8.412 2.28-8.412 2.28-14.713 7.961-2.545 4.98-4.307 10.216-5.804 15.596C360 306 360 306 358.594 309.09c-.906 4.438.92 7.438 2.844 11.41 4.396 9.18 4.396 9.18 2.562 14.5-1.504 2.21-1.504 2.21-3.562 4.375l-2.422 2.555L355 345l-1.928 1.985q-3.181 3.269-6.385 6.515l-2.101 2.142-2.012 2.014-1.794 1.807c-2.742 2.367-4.992 3.432-8.58 3.912-3.406-.4-5.53-1.545-8.452-3.272-4.28-2.44-8.229-4.528-13.248-3.682-5.097 1.643-9.815 4.006-14.497 6.588-2.003.991-2.003.991-5.308 1.686-3.802 1.84-4.329 4.244-5.773 8.088l-.922 2.654a238 238 0 0 1-1.875 5.184l-.805 2.326c-1.96 3.049-3.942 3.804-7.32 5.053-2.829.282-5.427.422-8.25.398l-2.353.01q-2.45.002-4.9-.017c-2.49-.016-4.977 0-7.466.02a1949 1949 0 0 1-4.781-.013l-2.235.019c-4.724-.064-8.073-.774-12.015-3.417-1.162-1.99-1.162-1.99-1.773-4.238l-.785-2.479-.817-2.596c-2.611-7.31-2.611-7.31-8.379-12.132-2.757-1.11-5.546-1.883-8.43-2.594-3.464-.872-5.409-1.835-8.316-3.774-2.37-1.141-3.79-1.39-6.33-.663-3.588 1.382-6.984 3.047-10.4 4.804-3.436 1.655-5.913 2.32-9.77 1.672-4.184-2.528-7.62-5.364-11.074-8.809l-2.772-2.763L161.74 350a742 742 0 0 0-4.304-4.292l-2.76-2.768-2.503-2.51c-3.188-3.567-5.224-5.926-5.06-10.802 1.248-5.105 3.503-9.524 5.805-14.227 1.318-4.146.838-5.488-.918-9.402l-1.437-3.691q-.78-1.937-1.563-3.872c-.26-.646-.52-1.292-.79-1.958q-1.103-2.74-2.21-5.479l-.594-2.707c-2.414-3.936-6.71-4.864-10.906-6.418a568 568 0 0 1-5.219-2.008l-2.342-.871C125 278 125 278 123 275c-.274-1.928-.274-1.928-.306-4.133l-.049-2.508-.016-2.699c-.01-.918-.018-1.837-.027-2.783q-.022-2.914-.028-5.828a687 687 0 0 0-.111-8.914q-.015-2.832-.022-5.662l-.059-2.693c.045-6.162.045-6.162 2.922-9.266 4.202-2.36 4.202-2.36 6.395-3.217l1.975-.781 2.013-.766 2.05-.812C142.703 223 142.703 223 145 223l.563-3.562c1.162-5.46 3.563-10.206 6.136-15.12 1.361-2.708 2.322-4.78 2.203-7.841-1.616-4.436-3.692-8.65-5.722-12.907-1.398-4.23-1.271-6.264-.18-10.57 1.628-2.411 3.611-4.337 5.715-6.336l1.73-1.712a642 642 0 0 1 5.493-5.327q1.848-1.815 3.693-3.637c10.624-10.425 10.624-10.425 16.818-10.425 4.516.774 8.392 3.081 12.403 5.222 4.857 1.874 7.796.753 12.515-1.125q2.682-1.22 5.363-2.444c3.348-1.49 6.326-2.515 9.958-2.966 3.401-.854 3.401-.854 4.316-3.27.508-1.73.96-3.479 1.36-5.238.63-2.716 1.478-5.118 2.573-7.68l.903-2.152c3.457-5.692 8.076-5.365 14.125-5.344M245 138c-2.097 5.453-2.097 5.453-4.157 10.92-1.352 3.395-2.299 5.632-5.16 7.986-3.109 1.267-6.218 2.31-9.433 3.281-6.825 2.124-13.12 4.975-19.438 8.31-4.354 2.197-6.953 3.019-11.812 1.503-2.872-1.235-5.626-2.626-8.414-4.04-2.93-1.088-3.723-1.016-6.586.04-1.8 1.389-1.8 1.389-3.453 3.16l-1.875 1.904-1.922 1.999-1.969 2.01A837 837 0 0 0 166 180l1.313 2.781L169 186.5l.867 1.82c2.299 5.145 3.435 10.098 1.452 15.553-.931 1.924-1.946 3.772-3.006 5.627-3.4 6.288-5.81 12.435-7.59 19.36-.75 2.752-1.398 4.797-3.38 6.89-3.271 1.745-6.633 3.113-10.093 4.438L140 243v22c6.4 3.219 6.4 3.219 12.875 6.25l2.242 1.016c1.857.855 1.857.855 3.883.734l.41 2.063c1.43 6.438 3.439 12.356 6.09 18.375l.899 2.04c1.275 2.825 2.548 5.446 4.32 7.995 2.103 4.148 1.936 8.194.707 12.574A100 100 0 0 1 169 322l-3 7 15 15c6.433-2.119 6.433-2.119 12.688-4.687 4.12-1.633 7.12-2.15 11.366-.529a211 211 0 0 1 7.008 3.466c7.54 3.735 14.792 6.585 22.938 8.75l3 1c.809 1.715.809 1.715 1.438 3.938 1.578 5.114 3.574 10.093 5.562 15.062h22c2.177-5.456 2.177-5.456 4.337-10.92l.839-2.068.84-2.11c1.949-3.768 3.702-4.8 7.722-6.261q2.284-.704 4.575-1.391c6.11-1.9 11.647-4.103 17.25-7.187 4.693-2.434 7.957-3.983 13.21-2.872 3.728 1.354 7.253 3.075 10.747 4.946 2.401 1.136 2.401 1.136 4.433.107 2.073-1.26 3.587-2.554 5.281-4.283l1.739-1.758 1.777-1.828 1.824-1.852q2.219-2.255 4.426-4.523l-1.312-3q-.846-2-1.688-4l-.867-1.965c-2.205-5.302-3.489-10.278-1.452-15.922.929-1.942 1.944-3.804 3.007-5.675 6.62-12.145 6.62-12.145 9.312-25.438l2.605-.84c3.296-1.126 6.493-2.382 9.707-3.723l3.176-1.316c2.403-.893 2.403-.893 3.512-2.121.087-1.635.107-3.273.098-4.91l-.01-2.998-.026-3.154-.013-3.167q-.018-3.885-.049-7.771l-3.613-1.355q-2.35-.915-4.7-1.833l-2.38-.884c-3.4-1.345-5.782-2.31-8.174-5.127-1.519-3.755-2.758-7.556-3.945-11.426-1.743-5.517-3.591-10.498-6.563-15.5-2.51-4.388-3.944-7.846-2.625-12.875 1.799-4.772 3.824-9.39 6-14a643 643 0 0 0-7.187-7.562l-2.042-2.194-2.001-2.06-1.825-1.92c-1.918-1.53-1.918-1.53-4.5-1.04-3.96 1.256-7.65 3.059-11.41 4.815-6.772 2.144-12.143-1.353-18.098-4.351-6.746-3.324-13.145-5.955-20.468-7.739-3.58-1.376-4.696-3.252-6.258-6.679-.838-1.994-1.625-4-2.399-6.02L267 138zM92 375c9.403 5.89 15.2 13.266 18.586 23.828 2.328 12.214-.087 23.076-6.836 33.36A216 216 0 0 1 101 436l2.66.77c13.658 5.03 23.808 17.675 30.34 30.23 3.425 7.649 6.589 16.53 6 25-1.55 3.722-2.627 4.751-6 7-2.245.254-2.245.254-4.92.26l-3.077.022-3.372-.007-3.553.015q-4.826.017-9.65.012-4.03 0-8.06.008-9.509.016-19.016.006c-6.537-.006-13.073.006-19.61.027q-8.42.026-16.84.02c-3.353-.001-6.704.001-10.056.015-3.74.013-7.479.006-11.219-.006l-3.36.023c-9.45-.064-9.45-.064-13.267-3.395-2.911-5.823-1.088-13.552.625-19.5C14.565 458.992 26.329 444.335 43 436h2l-1.426-2.02c-7.078-10.478-10.422-20.878-8.105-33.543 2.957-11.264 9.13-19.965 19.078-25.976 11.24-5.558 26.513-6.029 37.453.539m-35.875 20.938C52.483 401.186 51.452 405.64 52 412c1.375 7.43 5.962 11.762 12 16 5.897 2.586 11.064 2.23 17.074.352C87.07 425.862 90.006 421.625 93 416c1.85-5.55 1.825-10.912-.687-16.25C89.146 394.161 85.13 390.118 79 388c-9.809-1.259-16.23.637-22.875 7.938m-20.562 67.101C32.6 466.756 30.258 470.827 28 475l-1.168 2.113c-1.034 2-1.034 2-.832 4.887h95c-2.938-7.345-5.049-12.274-10-18l-1.672-2.027c-7.697-8.57-19.985-14.673-31.527-15.309-16.492-.334-30.6 4.009-42.238 16.375M94.426 15.473c7.49 5.324 13.606 12.985 16.136 21.922 1.94 11.554.664 22.236-5.687 32.167C103 72 103 72 101 74l2.492 1.434c17.064 10.108 28.613 22.74 34.582 42.039C140.872 128.5 140.872 128.5 139 134c-2.202 2.586-4.004 3.846-7.392 4.369-3.105.154-6.187.171-9.296.149l-3.583.02c-3.236.015-6.471.012-9.707 0-3.39-.01-6.78-.001-10.17.005q-8.54.01-17.079-.022a2963 2963 0 0 0-19.728.008q-8.478.026-16.956.01c-3.373-.006-6.746-.007-10.12.006-3.76.01-7.52-.005-11.282-.027l-3.378.024c-7.528-.083-7.528-.083-11.498-2.419-2.95-3.46-2.489-6.26-2.291-10.643C8.954 107.842 18.424 93.154 32 82c4.142-3 8.504-5.564 13-8l-1.172-1.293c-6.64-7.971-9.6-17.732-9.148-28.082 1.512-12.393 7.503-21.02 17.07-28.75 12.503-8.984 29.765-8.24 42.676-.402M56.625 34.375C52.561 39.565 51.435 44.435 52 51c1.73 6.619 4.501 11.2 10.125 15.25 5.29 2.752 10.708 3.459 16.527 2.156 7.109-2.48 10.941-6.358 14.723-12.719 1.553-6.676 1.402-12.84-2.04-18.867C88.03 32.315 83.52 28.283 78 27c-8.829-.981-15.295.751-21.375 7.375M34 104c-5.722 7.9-5.722 7.9-8 17h95c-6-15.001-14.344-24.957-29.172-31.812C71.302 80.568 48.392 87.748 34 104m425.625 275.625c9.336 6.71 15.081 15.079 17.375 26.375.867 11.376-1.03 19.972-7.793 29.188-1.392 1.727-1.392 1.727-1.207 3.812 1.918 1.28 1.918 1.28 4.375 2.563 15.569 9.04 26.484 23.274 31.625 40.437.838 3.541 1.216 6.925 1.313 10.563l.113 2.816c-.56 3.449-1.742 4.438-4.426 6.621-2.418.503-2.418.503-5.162.508l-3.16.034-3.451-.024-3.648.02c-3.298.015-6.594.012-9.892 0-3.452-.01-6.904-.001-10.356.005q-8.696.01-17.392-.022c-6.7-.021-13.4-.014-20.101.008q-8.633.026-17.264.01a1821 1821 0 0 0-10.309.006c-3.83.014-7.66-.005-11.492-.027l-3.45.024-3.161-.034-2.744-.005c-3.21-.668-4.4-1.968-6.418-4.503-1.334-5.177-.843-9.533.5-14.625l.546-2.102c4.565-16.369 15.12-30.068 29.59-38.878A159 159 0 0 1 410 439l-1.75-3c-6.676-11.712-9.654-22.677-6.25-36.25 3.786-10.615 11.103-17.746 20.95-22.738 11.884-5.44 25.662-4.165 36.675 2.613m-38.473 20.664c-3.563 5.29-3.906 10.46-3.152 16.711 2.118 7.192 7.029 11.701 13.375 15.375 6.748 1.607 12.396.976 18.617-2.113 5.331-3.35 8.04-8.359 10.008-14.262.738-6.763-1.218-11.935-4.562-17.687-4.467-4.238-10.24-7.524-16.5-7.875-7.6 1.085-13.088 3.682-17.786 9.851M400 468c-2.276 3.21-4.21 6.499-6 10l-1.156 2.105c-1.047 2.006-1.047 2.006-.844 4.895h94c-4.44-13.318-11.365-22.665-23.766-29.531C440.25 444.906 416.468 449.975 400 468m59.582-449.492C469.327 25.646 474.625 34.166 477 46c1.51 12.852-3.31 22.332-10 33l2.66.77c14.83 5.463 24.664 19.197 31.152 32.918 3.318 7.715 5.742 15.83 4.188 24.312-2.016 2.511-3.223 3.839-6.418 4.5l-2.744.001-3.16.03-3.451-.03-3.648.017q-4.946.013-9.892-.014c-3.452-.013-6.904-.007-10.356-.003q-8.696.002-17.392-.034c-6.7-.027-13.4-.029-20.101-.017q-9.672.014-19.344-.01-4.115-.007-8.229 0c-3.83.005-7.661-.014-11.492-.036l-3.45.014-3.161-.03-2.744-.008c-2.935-.461-4.291-1.328-6.418-3.38-3.346-10.874 2.85-24.106 7.887-33.64C388 93.051 398.257 84.245 410 78l-1.46-2.379c-.633-1.05-1.264-2.101-1.915-3.183l-1.898-3.13c-4.6-8.814-5.157-18.785-3.04-28.445 3.372-10.073 10.244-19.301 19.872-24.152 12.789-5.283 25.78-5.353 38.023 1.797M422 38c-3.966 5.607-4.778 11.252-4 18 2.1 6.973 6.773 11.45 12.89 15.14 4.775 1.946 10.496 1.606 15.395.208 6.151-2.762 10.3-7.26 13.09-13.348 1.378-6.616.76-12.055-2.375-18-2.23-2.813-2.23-2.813-5-5l-2.687-2.25C439.193 27.404 429.798 30.384 422 38m5.125 52.625-2.107.538C418.995 92.81 414.02 95.255 409 99l-2.137 1.555C400.221 105.843 395.37 113.23 392 121v3h94c-2.73-8.188-4.618-11.902-10-18l-1.66-1.91c-6.628-7.13-14.122-11.078-23.465-13.465l-1.99-.509c-7.592-1.756-14.232-1.415-21.76.509" fill="#fff"/><path d="M295.941 199.105C310.31 210.463 319.765 224.768 323 243c1.405 19.508-.783 36.88-13.172 52.79-14.031 16.014-30.035 24.624-51.234 26.413-20.212.453-37.13-7.205-51.781-20.828-14.297-14.797-18.26-32.776-18.02-52.687.451-17.039 8.514-31.89 20.363-43.868 23.484-21.912 60.556-24.49 86.785-5.715M218 221c-10.617 12.749-13.033 25.841-12 42 .582 3.585 1.552 6.678 3 10l1.031 2.504c5.4 11.949 14.91 20.637 26.906 25.808 13.838 5.001 27.538 4.663 41.063-1.312 3.201-1.773 6.103-3.77 9-6l1.863-1.367C298.371 285.17 303.396 274.598 306 263c1.032-16.917-1.748-29.901-12.879-43.254-8.775-9.342-20.456-15.126-33.285-15.95-16.874-.228-30.142 4.862-41.836 17.204m26.336-207.238 2.632-.03c19.7-.176 38.683.142 58.032 4.268l3.059.633C323.998 22.022 340.373 26.686 355 34l.25-2.75c.871-3.776 1.562-5.07 4.75-7.25 3.438-.562 3.438-.562 7 0 5.322 4.185 7.857 9.9 10.813 15.875l1.521 2.934C384.14 52.42 384.14 52.42 383 58c-3.82 5.758-9.315 6.51-15.687 7.813l-2.858.654C358.401 67.777 352.196 68.843 346 68c-3.42-2.687-3.899-4.278-4.5-8.562.5-3.438.5-3.438 2.375-5.876C346 52 346 52 348 52v-2l-1.578-.52a720 720 0 0 1-12.742-4.347c-10.142-3.532-20.24-6.733-30.743-9.008l-2.658-.578c-14.213-2.92-28.065-3.958-42.529-3.922l-2.65.003c-35.969.118-71.285 8.133-102.66 26.135-4.921 2.751-8.773 4.03-14.44 4.237-2.998-1.34-4.528-2.056-6-5-.375-3.312-.375-3.312 0-7 3.956-4.927 9.003-7.469 14.563-10.312l2.819-1.45c29.078-14.702 62.218-24.17 94.954-24.476M50 151c3.364 2.798 4.773 5.31 6.14 9.43l1.055 3.16 1.055 3.285 1.102 3.262C61.032 175.26 62.383 179.55 62 185c-2.058 3.705-3.312 4.783-7.375 6.063-4.417-.077-6.107-1.53-9.625-4.063-14.318 49.233-14.585 105.225 7.904 152.271C55.232 344.42 55.165 347.624 54 353c-1.809 2.315-3.034 2.843-5.902 3.309-3.367.206-5.24.295-8.078-1.704-3.014-3.888-4.584-8.157-6.333-12.73l-1.18-3.073C23.361 314.328 17.667 288.174 17 262l-.062-1.976C16.174 233.08 19.647 205.667 28 180c-1.659.03-1.659.03-3.352.063C21 180 21 180 18.625 179c-2.084-2.565-2.433-4.653-2.937-7.867.5-3.414 1.856-4.673 4.312-7.133 3.416-2.427 6.972-4.592 10.563-6.75l2.904-1.785C43.583 149.297 43.583 149.297 50 151m418.5 1.375c4.524.808 5.577 2.1 8.5 5.625 1.587 3.03 2.772 6.163 3.938 9.375l1.032 2.796C500.134 220.713 501.502 278.058 484 329l2.332-.578C489 328 489 328 491.688 329.25 494 331 494 331 496 334c.448 3.434.411 5.322-1.398 8.309-3.705 3.832-8.01 6.225-12.602 8.878l-2.734 1.616c-10.588 6.225-10.588 6.225-14.266 6.072-3.523-1.027-4.646-2.1-7-4.875-1.813-3.97-3.01-8.15-4.312-12.312l-1.127-3.381c-3.293-10.344-3.293-10.344-1.561-16.307 1.579-2.06 2.691-2.846 5-4 3.41-.297 5.38-.359 8.375 1.375L466 321v2h2l.32-2.797c.6-4.2 1.679-8.234 2.75-12.334 11.778-45.62 9.488-96.312-9.75-139.74-1.575-3.734-1.914-6.117-1.32-10.129 2.592-3.692 4.041-4.829 8.5-5.625M194 449c3.275 2.155 3.902 3.664 5 7.438 0 3.562 0 3.562-1.937 6.5L195 465c41.283 16.56 97.157 12.457 137.613-4.259 4.508-1.783 7.688-1.914 12.387-.741 2.884 2.588 3.85 4.195 4.563 8-.769 4.098-2.404 5.315-5.563 8-2.579 1.184-4.948 2.135-7.625 3l-2.256.755C286.154 495.485 237.623 495.295 189 483l.578 2.332C190 488 190 488 188.75 490.688 187 493 187 493 184 495c-3.399.443-5.295.436-8.238-1.383-4.045-3.833-6.977-8.255-10.074-12.867l-1.956-2.777C160 472.436 157.745 468.722 159 462c4.175-5.085 9.81-6.55 15.813-8.75l3.236-1.246c5.477-2.04 10.089-3.742 15.951-3.004" fill="#fff"/><path d="M287 229c2.5 1.5 2.5 1.5 4 4 .453 3.174.68 4.989 0 8-1.937 2.438-1.937 2.438-5 5a518 518 0 0 0-4.312 4.375 184 184 0 0 1-10.461 9.68c-2.242 1.958-4.427 3.972-6.606 5.999-14.547 13.499-14.547 13.499-19.808 14.634-6.51-1.592-11.018-6.606-15.563-11.25l-1.746-1.749c-6.386-6.453-6.386-6.453-6.879-11.627.088-2.99.285-3.928 2-6.5 2.94-1.934 4.852-2.49 8.375-2.562 5.302 2.093 9.124 6.951 13 11 2.87-1.319 5.087-2.771 7.438-4.875l2.097-1.871a961 961 0 0 0 7.162-6.63c2.751-2.56 5.525-5.094 8.303-7.624l2.777-2.55c5.162-4.478 8.312-6.88 15.223-5.45" fill="#fff"/></svg>