<svg class="svg-icon" style="width:1em;height:1em;vertical-align:middle;fill:currentColor;overflow:hidden" viewBox="0 0 1024 1024" xmlns="http://www.w3.org/2000/svg"><path fill="#fff" d="M895.8 762.7v11.1c.1-1.8.2-3.7.2-5.6 0-1.8 0-3.7-.2-5.5M853.6 204c-7.8-.6-15.4 2.3-20.9 7.8s-8.4 13.1-7.8 20.9v574.4c-2 30.7-26.3 55.2-56.9 57.4H267.1c-34.3 0-74.1-28.7-74.1-57.4v-64.3c0-28.7 34.3-46.3 68.5-46.3h478.2c7.8.6 15.4-2.3 20.9-7.8s8.4-13.1 7.8-20.9V198.5c.6-29.5-11.6-57.8-33.4-77.7s-51.2-29.3-80.5-26H267.1c-63 0-125.4 34.7-125.4 103.7v631.8c10.4 53 54.5 92.7 108.3 97.7h518.4c61.1.1 111.4-48.2 113.9-109.2V233.7c-.9-15.5-13.2-27.8-28.7-28.7zM743.4 755.3H280.6c-15.8 0-28.7 12.9-28.7 28.7 0 15.9 12.9 28.7 28.7 28.7h462.9c15.8 0 28.7-12.9 28.7-28.7-.1-15.8-12.9-28.7-28.8-28.7m0 0"/></svg>