<svg xmlns="http://www.w3.org/2000/svg" width="128" height="128"><path d="M64.531.031c2.813 1.104 3.848 2.247 5.781 4.532 4.153 3.935 7.731 4.003 13.188 3.875C86.01 8.345 88.495 8.19 91 8c.081 2.876.14 5.749.188 8.625l.076 2.45c.07 5.823-.681 10.093-4.764 14.57-4.77 3.713-7.724 4.482-13.687 4.417l-3.293-.027L67 38v4l3.688-.687c3.03-.37 4.208-.355 7.124.812C80.268 44.229 81.616 46.085 83 49v3l2.188.25c3.996 1.066 6.758 3.045 8.949 6.59.986 2.468 1.066 4.264.988 6.91l-.055 2.422L95 70l4 2v6l3.188.188c4.475.953 5.935 2.342 8.812 5.812 1.433 2.866 1.306 4.813 1 8-1.793 3.454-3.069 5.488-6.5 7.375C103 100 103 100 99 100l.14 1.688c.353 7.457-1.902 11.875-5.89 18-5.887 6.05-11.903 8.418-20.262 8.55q-3.224.04-6.447.057-2.216.017-4.43.062C47.02 128.659 47.02 128.659 40 124l-2.687-1.75c-4.16-4.046-8.153-9.542-8.41-15.512.01-.8.023-1.6.035-2.425l.027-2.45L29 100l-3.187-.187C21.337 98.859 19.877 97.47 17 94c-1.433-2.866-1.306-4.813-1-8 2.05-3.808 3.744-6.71 8-8 2.75-.125 2.75-.125 5 0v-6l4-2-.14-1.758c-.261-5.641.256-8.834 4.14-13.242 2.989-2.187 4.28-3 8-3l.25-2.75c.88-3.816 1.542-5.029 4.75-7.25 3.87-.998 7.152-1.283 11 0v-4l-2.414.105c-10.96.28-10.96.28-15.586-3.105-3.219-3.219-5.844-6.26-6.114-10.993l.016-2.237.01-2.432.026-2.526.013-2.56Q36.971 11.126 37 8l3.184.281c8.213.672 8.213.672 15.707-2.097C58.199 4 58.199 4 60.105 1.652 62 0 62 0 64.531.032m-4.418 8.473C56.308 12.854 53.776 15.94 54 22c1.537 4.208 3.187 6.633 7 9-.564-3.27-1.5-4.826-4-7l2-4h2v-8h6l.313 1.938L68 16l3 1c-.637 3.695-.637 3.695-2.562 5.313C66.163 24.983 66.81 27.635 67 31c3.709-2.635 5.952-4.494 7-9 .115-6.078-2.288-9.124-6.113-13.496-2.81-2.24-4.964-2.24-7.774 0M42 13c-.663 8.569-.663 8.569 3 16l1.313 1.75c2.41 1.786 4.752 1.924 7.687 2.25-3.084-6.085-3.084-6.085-7.375-11.312L45 20c.25-2.25.25-2.25 1-4h4v-3zm36 0v3l5 1c-.427 3.698-2.322 5.678-4.723 8.406C76.414 27.731 75.222 30.298 74 33c3.97-.277 5.724-.767 8.813-3.375 3.176-3.811 3.306-6.509 3.25-11.312l-.028-3.012L86 13zM50 50c.34 3.151.58 4.608 2.938 6.813C54.892 58.166 54.892 58.166 57 58l1 4c-5.288-.415-8.117-1.352-12-5-3.875 1.257-6.106 2.312-8 6-.25 3.667-.25 3.667 0 7h3l1.125-2.875C44 64 44 64 47.188 62.625L50 62v5l-4 2v1h15c.108-3.438.187-6.873.25-10.312l.102-2.96.039-2.841.063-2.619c-.26-2.43-.26-2.43-2.353-4.073-4.2-2.39-5.733-.031-9.101 2.805m17-1c-.55 2.31-.55 2.31-.39 4.887l.038 2.842.102 2.959.055 2.994c.047 2.44.119 4.879.195 7.318h15l-2-3h-2v-5c6.646 2.338 6.646 2.338 8.438 5.688L87 70h3c.318-4.059.397-6.347-1.75-9.875-2.065-2.13-2.065-2.13-4.187-3.187-2.292-.14-2.292-.14-4.376 1.937C76.435 61.447 74.076 61.68 70 62c.188-1.875.188-1.875 1-4 2.438-1.125 2.438-1.125 5-2l2-2c-.166-3.23-.553-4.582-2.937-6.812C71.455 45.11 69.87 46.272 67 49M34 75l-.25 15.5-.11 4.842c-.068 8.652.207 14.845 6.106 21.681l1.691 1.352 1.684 1.398c6.467 4.222 13.234 3.594 20.691 3.602l3.776.074c8.32.027 13.965-.612 20.435-6.195l1.352-1.692 1.398-1.683c3.092-4.736 3.467-8.76 3.422-14.367l-.015-3.9-.055-4.924L94 75zM23.313 85.5 21 88c1.25 3.653 1.671 4.78 5 7h3c-1.293-2.884-2.66-4.872-5-7l1-2h4v-3c-3.246-.34-3.246-.34-5.687 2.5M99 83l1 3h3l1 3-2.5 1.875L99 93v2c3.045-.33 4.636-.671 6.938-2.75 1.35-2.253 1.35-2.253.437-4.875-1.296-2.641-1.296-2.641-4.375-4.375z" fill="#fff"/><path d="M74 101h5c-.453 4.868-1.583 7.486-5 11-3.886 2.769-8.186 2.223-12.75 2.125l-2.402-.027c-1.95-.024-3.899-.06-5.848-.098v-5l3.105-.043 4.083-.144 2.04-.018c3.927-.172 5.64-.685 8.698-3.22 2.061-2.372 2.061-2.372 3.074-4.575m42.206-77.839L118 24l1 3-21 14-3-3c1.596-4.788 5.723-6.538 9.812-9.25l2.487-1.719c.795-.53 1.59-1.062 2.408-1.61l2.202-1.48C114 23 114 23 116.206 23.16M11 23c3.307.63 5.552 1.839 8.328 3.723l2.422 1.63 2.5 1.71 2.547 1.72Q29.904 33.883 33 36l-2 5c-7.8-4.01-14.863-8.937-22-14zm15 42 1 5c-4.475 1.59-8.906 2.695-13.562 3.625-1.28.26-2.56.52-3.88.79C6.605 74.9 3.98 75.124 1 75v-5q5.686-1.255 11.375-2.5l3.273-.723 3.125-.683 2.889-.635C24 65 24 65 26 65M1 45q5.656.965 11.313 1.938l3.248.552 3.115.537 2.872.492C24 49 24 49 27 50l-1 5c-5.741-.504-11.347-1.382-17-2.5l-2.033-.396C2.124 51.124 2.124 51.124 1 50a100 100 0 0 1 0-5m101 20 25 5v5c-5.712-.501-11.308-1.355-16.937-2.437l-3.903-.747C103 71 103 71 101 69zm25-20v5c-4.495 1.6-8.946 2.697-13.625 3.625-1.292.26-2.583.52-3.914.79C106 55 106 55 102 55l-1-5q5.937-1.255 11.875-2.5l3.418-.723 3.262-.683 3.015-.635C125 45 125 45 127 45M70 82h5l1 3c2.473-.344 2.473-.344 5-1l1-2h5c-.61 5.484-.61 5.484-2.266 7.672-2.76 2.114-5.204 1.8-8.57 1.68C74 91 74 91 71.437 89.312 69.768 86.626 69.656 85.109 70 82m-29 0c2.375-.187 2.375-.187 5 0l2 3h4l1-3h5c.345 3.108.233 4.625-1.437 7.313-3.268 2.151-5.576 2.316-9.434 2.144C45 91 45 91 42.438 88.75 41 86 41 86 41 82m57-60 4 2c-.57 3.626-1.924 5.255-4.562 7.75l-1.942 1.86L94 35l-4-3c1.65-4.292 4.738-6.88 8-10m-70 0c4.292 1.65 6.88 4.738 10 8l-2 4c-3.68 0-4.195-.737-6.75-3.25l-1.922-1.828C26 27 26 27 26.234 24.828 27 23 27 23 28 22m84 17c.688 2.063.688 2.063 1 4q-2.685 1.256-5.375 2.5l-3.023 1.406C102 48 102 48 100 48l-1-5a408 408 0 0 1 4.813-2.562l2.707-1.442C109 38 109 38 112 39m-95-1q2.159.68 4.313 1.375l2.425.773C26 41 26 41 29 43l-1 5c-9.595-2.89-9.595-2.89-13-6zm86 20h13v5h-13zm-91 0h13v5H12zm95-45 4 3c-1.293 2.884-2.66 4.872-5 7l-4-2c0-3 0-3 2.5-5.687zm-87 0 7 6-3 4c-2.884-1.293-4.872-2.66-7-5 1.875-3.875 1.875-3.875 3-5M5 33l9 3-1 5c-3.735-.498-5.812-.875-9-3zm118 0 1 5c-5.625 3-5.625 3-9 3l-1-5c6.75-3 6.75-3 9-3m-4 25h9v5h-9zM0 58h9v5H0z" fill="#fff"/></svg>