<svg xmlns="http://www.w3.org/2000/svg" width="512" height="512"><path d="M231.139 310.977c17.263 9.488 31.897 12.13 51.49 12.199l7.822.072c4.064.036 8.127.066 12.191.078 3.954.012 7.908.056 11.862.1l3.65-.006c9.75.14 18.034 2.077 25.315 8.877 7.393 8.223 9.113 16.937 8.843 27.715-.474 8.385-4.087 15.39-10.312 20.988-7.523 5.657-14.356 7.298-23.642 7.271l-2.89.016q-3.096.015-6.192.018-4.906.008-9.813.04c-9.297.056-18.594.087-27.892.111q-8.54.025-17.08.085-3.247.018-6.494.018c-3.032 0-6.064.018-9.096.04l-2.69-.014c-5.715.067-10.027.94-15.211 3.415-2.632 4.026-3.167 5.997-2.375 10.75 1.774 4.192 2.75 5.578 6.934 7.308 4.187 1.146 7.935 1.222 12.253 1.2l2.625.011c2.854.01 5.708.003 8.563-.003l5.994.005q6.285.005 12.569-.01a3656 3656 0 0 1 16.003.007q6.195.009 12.39 0 2.948-.003 5.894.005c21.99.04 41.37-1.627 58.15-17.273a64.8 64.8 0 0 0 8.253-12.459c2.078-3.023 3.767-3.95 7.06-5.521l3.265-1.592 3.422-1.615q3.283-1.581 6.562-3.168l3.56-1.722c5.195-2.55 10.3-5.275 15.413-7.983 8.337-4.412 16.725-8.722 25.121-13.02l7.705-3.947 4.994-2.559 2.28-1.168q2.14-1.095 4.282-2.186 2.131-1.085 4.258-2.18l2.115-1.078 1.873-.96c8.514-3.902 18.06-3.865 26.837-.842 8.689 4.051 15.211 9.764 19.437 18.438 2.954 8.26 3.32 19.442-.062 27.625-4.42 7.639-9.276 13.14-16.563 18.125l-2.375 1.67A896 896 0 0 1 480 403l-2.369 1.63q-5.887 4.049-11.795 8.065c-4.89 3.332-9.742 6.718-14.586 10.118a6094 6094 0 0 1-24.472 17.085l-5.855 4.07q-5.778 4.017-11.556 8.038-2.865 1.992-5.732 3.98a1172 1172 0 0 0-14.526 10.225c-45.469 32.435-90.166 38.265-144.609 29.602l-2.042-.325c-11.162-1.777-22.31-3.63-33.458-5.488a8789 8789 0 0 0-34.835-5.746 2011 2011 0 0 1-15.717-2.624c-3.334-.565-6.671-1.11-10.01-1.65a406 406 0 0 1-4.53-.771C126.568 476.164 109.849 476.51 92 476V324l20-1c4.034-2.905 7.039-5.271 10.466-8.635 30.165-26.843 76.202-21.342 108.673-3.388m9.732-176.777c2.571.966 4.817 2.231 7.191 3.613 15.216 8.37 30.91 11.08 47.938 7.187 7.497-2.227 13.918-5.145 20.098-9.96 1.902-1.04 1.902-1.04 3.84-.911 2.602 1.099 4.706 2.533 7 4.184l2.527 1.8C345.908 152.351 356.46 170.87 360 191q.155 2.345.193 4.695l.049 2.731c.044 4.092.085 8.183.108 12.275q.025 3.234.082 6.468c.055 3.12.077 6.238.091 9.358l.07 2.908c-.015 4.483-.116 7.587-3 11.157-3.698 3.434-5.39 3.536-10.336 3.562l-3.705.026-4.086.013-4.287.025c-4.7.026-9.4.041-14.1.055l-4.854.017q-10.094.033-20.186.051-14.468.023-28.935.107-10.17.056-20.342.063c-4.05.004-8.1.016-12.15.048q-5.718.044-11.435.025-2.097 0-4.192.025c-11.868.142-11.868.142-15.8-3.02-2.728-3.233-3.31-4.69-3.362-8.8l-.039-2.644-.022-2.875-.025-2.978q-.02-3.135-.032-6.272a731 731 0 0 0-.062-6.345c-.223-15.836.569-29.786 8.17-44.05l1.038-2.013c2.833-5.345 6.19-10.04 10.149-14.612l1.793-2.414c2.635-3.087 5.526-5.362 8.77-7.774l1.748-1.326c7.314-5.526 7.314-5.526 9.56-5.287m-148-31.999c2.571.966 4.817 2.231 7.192 3.612 15.215 8.371 30.908 11.08 47.937 7.188 7.497-2.227 13.918-5.145 20.098-9.96C170 102 170 102 171.96 102.155 184.716 107.434 197.058 120.66 203 133c-.083 3.896-2.685 6.33-5.062 9.25-13.328 17.115-19.324 38.022-21.063 59.375l-.262 3.043q-.315 3.666-.613 7.332-22.726.177-45.454.26c-7.035.025-14.07.06-21.106.117-6.788.055-13.577.084-20.365.097q-3.886.015-7.773.055c-3.627.036-7.253.04-10.88.039l-3.25.054c-8.13-.056-8.13-.056-11.823-3.032-2.915-3.214-3.472-4.603-3.526-8.802l-.039-2.643-.022-2.875-.025-2.978q-.02-3.135-.032-6.272a731 731 0 0 0-.062-6.345c-.223-15.836.569-29.786 8.17-44.05l1.038-2.013C63.684 128.267 67.04 123.572 71 119l1.793-2.414c2.635-3.087 5.526-5.362 8.77-7.773l1.748-1.327c7.314-5.526 7.314-5.526 9.56-5.287M391 103c1.708.9 3.394 1.842 5.063 2.813 15.215 8.37 30.908 11.08 47.937 7.187 7.497-2.227 13.918-5.145 20.098-9.96 1.902-1.04 1.902-1.04 3.84-.911 2.602 1.099 4.706 2.533 7 4.183l2.527 1.801C493.908 120.351 504.46 138.87 508 159q.155 2.345.193 4.695l.049 2.731c.044 4.092.085 8.183.108 12.275q.025 3.234.082 6.468c.055 3.12.077 6.238.091 9.358l.07 2.908c-.015 4.483-.116 7.587-3 11.157-3.385 3.144-4.795 3.533-9.275 3.528l-2.992.004-3.293-.01h-3.46c-3.787 0-7.574-.009-11.362-.016l-7.861-.005q-9.302-.005-18.604-.021-10.589-.015-21.177-.022-21.785-.016-43.569-.05l-.24-2.424c-.368-3.666-.746-7.332-1.123-10.998l-.378-3.812c-2.185-21.001-9.954-43.46-25.259-58.766 1.335-11.941 14.898-23.046 23.7-30.191 6.193-4.413 6.193-4.413 10.3-2.809M15.722 299.807l2.974-.049c4.496-.044 8.992-.085 13.488-.108a779 779 0 0 0 7.11-.082 855 855 0 0 1 10.253-.091l3.201-.07c8.22.024 8.22.024 11.905 3 3.602 3.98 3.497 6.705 3.5 11.854l.014 2.294q.019 3.825.026 7.651l.025 5.47c.026 5.998.041 11.997.055 17.996l.017 6.19q.033 12.873.051 25.746.023 18.46.107 36.922.056 12.974.063 25.947c.004 5.168.016 10.335.048 15.503q.044 7.294.025 14.587 0 2.677.025 5.353c.023 2.437.015 4.873-.001 7.31l.042 2.137c-.09 5.572-1.854 7.851-5.65 11.633-2.422 1.21-4.015 1.153-6.722 1.193l-2.974.049c-4.496.044-8.992.085-13.488.108q-3.555.025-7.11.082a855 855 0 0 1-10.253.091l-3.201.07c-8.22-.024-8.22-.024-11.905-3-3.602-3.98-3.497-6.705-3.5-11.854l-.014-2.294q-.019-3.825-.026-7.651l-.025-5.47c-.026-5.998-.041-11.997-.055-17.996l-.017-6.19q-.033-12.873-.051-25.746-.023-18.46-.107-36.922-.056-12.973-.063-25.947c-.004-5.168-.016-10.335-.048-15.503q-.044-7.294-.025-14.587 0-2.677-.025-5.353c-.023-2.437-.015-4.873.001-7.31l-.042-2.137C3.44 307.061 5.204 304.782 9 301c2.422-1.21 4.015-1.153 6.722-1.193M302.418 49.508C311.221 55.848 317.837 64.234 320 75c1.338 12.417.275 23.389-7.187 33.75-6.813 8.085-15.118 14.313-25.884 15.473-12.911.896-23.68-.67-33.863-9.25-8.518-8.132-13.068-16.781-13.537-28.608C239.374 73.85 242.191 64.227 251 55c13.78-13.155 35.105-15.665 51.418-5.492m148-32C459.221 23.848 465.837 32.234 468 43c1.338 12.417.275 23.389-7.187 33.75-6.813 8.085-15.118 14.313-25.884 15.473-12.911.896-23.68-.67-33.863-9.25-8.518-8.132-13.068-16.781-13.537-28.608C387.374 41.85 390.191 32.227 399 23c13.78-13.155 35.105-15.665 51.418-5.492m-296 0C163.221 23.848 169.837 32.234 172 43c1.338 12.417.275 23.389-7.187 33.75-6.813 8.085-15.118 14.313-25.884 15.473-12.911.896-23.68-.67-33.863-9.25-8.518-8.132-13.068-16.781-13.537-28.608C91.374 41.85 94.191 32.227 103 23c13.78-13.155 35.105-15.665 51.418-5.492" fill="#fff"/></svg>