<svg width="94" height="103" viewBox="0 0 94 103" fill="none" xmlns="http://www.w3.org/2000/svg">
<path d="M91.479 86.2279H71.2731V76.2911C71.2731 74.9693 70.2894 73.8955 69.0821 73.8955H62.2263L75.1558 44.979C75.7769 43.5887 75.7003 41.9781 74.9507 40.6664C74.2022 39.3572 72.9103 38.5747 71.4968 38.5747H58.6101V30.3802H60.8093C62.2622 30.3802 63.444 29.0887 63.444 27.5035V7.39171C63.444 3.31727 60.4106 0.00244141 56.6821 0.00244141H55.7112C51.9827 0.00244141 48.9493 3.31727 48.9493 7.39171V27.5035C48.9493 29.0887 50.1311 30.3802 51.5841 30.3802H55.0509V38.5747H42.046C40.6532 38.5747 39.3741 39.3369 38.621 40.6158C37.8679 41.8947 37.7624 43.485 38.3384 44.8676L50.4233 73.8957H43.0612V64.0272C43.0612 62.6675 42.0497 61.5634 40.8065 61.5634H2.25713C1.01396 61.5634 0.00244141 62.6675 0.00244141 64.0272V99.9862C0.00244141 101.346 1.01396 102.45 2.25713 102.45H91.479C92.7233 102.45 93.7337 101.346 93.7337 99.9862V88.692C93.7339 87.332 92.7235 86.2279 91.479 86.2279ZM52.5085 7.39149C52.5085 5.46185 53.9452 3.89183 55.711 3.89183H56.6819C58.4478 3.89183 59.8845 5.46185 59.8845 7.39149V9.3617H52.5085V7.39149ZM52.5085 13.2513H59.8845V26.4903H52.5085V13.2513ZM41.6136 42.7226C41.6704 42.6263 41.8013 42.4643 42.0458 42.4643H55.0507V51.0996C55.0507 52.1734 55.8468 53.0444 56.8304 53.0444C57.813 53.0444 58.6101 52.1734 58.6101 51.0996V42.4643H71.4968C71.7448 42.4643 71.8757 42.6289 71.9325 42.7277C71.9882 42.8265 72.0669 43.0291 71.9581 43.2722L56.7065 77.38C56.4702 77.9119 56.0009 77.9017 55.7784 77.3649L41.5778 43.257C41.4769 43.0139 41.5567 42.8188 41.6136 42.7226ZM52.5386 78.9755C53.2083 80.5835 54.6288 81.5838 56.2464 81.5838C57.8151 81.5838 59.2161 80.6266 59.9042 79.0869L60.6284 77.4676C60.9007 77.6511 61.203 77.7854 61.546 77.7854H67.7136V86.2281H48.7034V77.7854H52.0427L52.5386 78.9755ZM45.144 86.2279H26.1327V77.7851H45.144V86.2279ZM3.56182 86.2279V77.7851H22.5731V86.2279H3.56182ZM39.5013 73.8955H20.4899V65.4528H39.5013V73.8955ZM3.56182 65.4528H16.9306V73.8955H3.56182V65.4528ZM3.56182 90.1177H11.2878V98.5605H3.56182V90.1177ZM14.8472 90.1177H33.8585V98.5605H14.8472V90.1177ZM37.4181 90.1177H56.4294V98.5605H37.4181V90.1177ZM59.9888 90.1177H78.889V98.5605H59.9888V90.1177ZM90.1743 98.5605H82.5585V90.1177H90.1743V98.5605Z" fill="#183C80" stroke="#183C80" stroke-width="0.00512"/>
</svg>
